<svg xmlns="http://www.w3.org/2000/svg" width="1366" height="768" viewBox="0 0 1366 768" version="1.1"><path d="M 753 71.066 C 734.607 73.084, 713.927 80.139, 697.244 90.087 C 689.304 94.822, 683.092 100.692, 629.715 153.901 C 566.158 217.258, 563.056 220.780, 553.439 240.500 C 532.444 283.552, 536.275 335.359, 563.383 374.960 C 566.197 379.071, 568.745 382.776, 569.044 383.193 C 569.584 383.945, 682.559 271.592, 683.359 269.506 C 683.940 267.993, 696.159 259.904, 705.083 255.125 C 713.933 250.386, 729.333 244.924, 741.027 242.378 C 752.899 239.792, 780.992 239.761, 793 242.320 C 811.845 246.336, 827.662 252.904, 843.217 263.171 C 851.124 268.390, 861.012 277.793, 909.919 326.604 C 941.499 358.122, 967.719 383.674, 968.185 383.386 C 970.262 382.102, 979.703 366.783, 984.080 357.593 C 993.729 337.337, 997.490 318.613, 996.652 295 C 995.891 273.545, 992.614 259.669, 983.927 241.111 C 975.145 222.352, 972.629 219.459, 913.093 159.669 C 879.214 125.645, 854.180 101.322, 849 97.396 C 839.312 90.052, 823.207 81.503, 811.576 77.530 C 794.617 71.737, 770.824 69.111, 753 71.066 M 396.802 385.750 C 389.248 394.513, 378.551 415.510, 374.519 429.488 C 369.992 445.183, 368.736 455.752, 369.348 473 C 370.109 494.455, 373.386 508.331, 382.073 526.889 C 390.855 545.648, 393.371 548.541, 452.907 608.331 C 486.358 641.925, 511.885 666.736, 517 670.626 C 521.675 674.181, 530.799 679.759, 537.276 683.021 C 557.574 693.244, 574.956 697.340, 598 697.331 C 620.136 697.323, 638.050 693.320, 657.243 684.095 C 675.729 675.209, 677.792 673.393, 739.608 611.593 C 801.475 549.742, 803.130 547.862, 812.766 528.500 C 822.713 508.513, 826.330 492.611, 826.412 468.500 C 826.490 445.742, 822.984 429.439, 813.902 410.330 C 810.001 402.121, 798.484 384, 797.167 384 C 796.267 384, 683.201 497.034, 682.641 498.494 C 682.060 500.007, 669.841 508.096, 660.917 512.875 C 652.067 517.614, 636.667 523.076, 624.973 525.622 C 613.101 528.208, 585.008 528.239, 573 525.680 C 554.155 521.664, 538.338 515.096, 522.783 504.829 C 514.876 499.610, 504.984 490.203, 456.036 441.351 C 424.430 409.808, 398.513 384, 398.441 384 C 398.369 384, 397.631 384.788, 396.802 385.750" stroke="none" fill="#0454fc" fill-rule="evenodd"/><path d="M 577.500 71.455 C 555.529 74.909, 534.716 83.724, 517.237 96.980 C 505.409 105.949, 399.592 212.726, 393.234 222.107 C 377.419 245.441, 369.658 270.766, 369.669 299 C 369.677 321.140, 373.682 339.062, 382.908 358.243 C 391.715 376.554, 393.751 378.866, 455.441 440.607 C 505.182 490.389, 514.830 499.592, 522.783 504.836 C 538.354 515.103, 554.166 521.666, 573 525.680 C 585.008 528.239, 613.101 528.208, 624.973 525.622 C 636.667 523.076, 652.067 517.614, 660.917 512.875 C 669.737 508.151, 682.058 500.013, 682.625 498.535 C 682.846 497.958, 657.434 471.895, 626.154 440.619 C 565.767 380.239, 562.735 376.796, 553.477 358.085 C 535.585 321.922, 535.571 277.140, 553.439 240.500 C 562.972 220.952, 566.393 217.046, 627.264 156.229 C 683.027 100.514, 683.564 99.939, 681.542 98.122 C 673.201 90.623, 651.826 79.648, 637.530 75.525 C 618.734 70.103, 595.934 68.558, 577.500 71.455 M 751.500 240.622 C 734.788 243.158, 717.121 248.679, 705.083 255.125 C 696.267 259.847, 683.942 267.987, 683.376 269.463 C 682.984 270.483, 795.763 384, 797.167 384 C 798.484 384, 810.001 402.121, 813.902 410.330 C 822.984 429.439, 826.490 445.742, 826.412 468.500 C 826.330 492.611, 822.713 508.513, 812.766 528.500 C 803.180 547.761, 801.345 549.851, 740.397 610.919 C 708.879 642.499, 683.326 668.719, 683.614 669.185 C 684.898 671.262, 700.217 680.703, 709.407 685.080 C 729.663 694.729, 748.387 698.490, 772 697.652 C 793.455 696.891, 807.331 693.614, 825.889 684.927 C 844.648 676.145, 847.541 673.629, 907.331 614.093 C 940.925 580.642, 965.736 555.115, 969.626 550 C 973.181 545.325, 978.759 536.201, 982.021 529.724 C 992.244 509.426, 996.340 492.044, 996.331 469 C 996.323 446.860, 992.318 428.938, 983.092 409.757 C 974.285 391.446, 972.249 389.134, 910.559 327.393 C 860.818 277.611, 851.170 268.408, 843.217 263.164 C 827.976 253.115, 812.045 246.432, 794 242.517 C 786.683 240.930, 757.922 239.647, 751.500 240.622" stroke="none" fill="#04c3ec" fill-rule="evenodd"/></svg>